<svg xmlns="http://www.w3.org/2000/svg" viewBox="0 0 64 64" width="64" height="64">
  <!-- Hintergrund: runder, bunter Kreis -->
  <circle cx="32" cy="32" r="32" fill="#C084FC"/>

  <!-- Fuchs-Ohren -->
  <polygon points="14,24 20,8 26,22" fill="#F97316"/>
  <polygon points="38,22 44,8 50,24" fill="#F97316"/>
  <polygon points="16,22 20,11 24,21" fill="#FDE68A"/>
  <polygon points="40,21 44,11 48,22" fill="#FDE68A"/>

  <!-- Fuchs-Kopf -->
  <ellipse cx="32" cy="34" rx="18" ry="16" fill="#F97316"/>

  <!-- Weißes Gesicht (Schnauze) -->
  <ellipse cx="32" cy="40" rx="11" ry="9" fill="#FDE68A"/>

  <!-- Augen -->
  <circle cx="25" cy="31" r="3.5" fill="white"/>
  <circle cx="39" cy="31" r="3.5" fill="white"/>
  <circle cx="25.8" cy="31.8" r="2" fill="#1e293b"/>
  <circle cx="39.8" cy="31.8" r="2" fill="#1e293b"/>
  <!-- Glanzpunkt -->
  <circle cx="26.5" cy="30.5" r="0.8" fill="white"/>
  <circle cx="40.5" cy="30.5" r="0.8" fill="white"/>

  <!-- Nase -->
  <ellipse cx="32" cy="39" rx="3" ry="2" fill="#92400e"/>

  <!-- Mund -->
  <path d="M29 42 Q32 45 35 42" stroke="#92400e" stroke-width="1.5" fill="none" stroke-linecap="round"/>

  <!-- Wangen-Punkte -->
  <circle cx="21" cy="38" r="3" fill="#fb923c" opacity="0.5"/>
  <circle cx="43" cy="38" r="3" fill="#fb923c" opacity="0.5"/>
</svg>
